<?xml version="1.0" encoding="UTF-8"?>
<svg xmlns="http://www.w3.org/2000/svg" xmlns:xlink="http://www.w3.org/1999/xlink" viewBox="0 0 64 64" version="1.1" width="512px" height="512px">
<g id="surface1">
<path style=" fill:#F9DD8F;" d="M 3 31 L 61 31 L 61 55 L 3 55 Z "/>
<path style=" fill:#EFC88E;" d="M 3 51 L 61 51 L 61 55 L 3 55 Z "/>
<path style=" fill:#EFC88E;" d="M 3 31 L 61 31 L 61 35 L 3 35 Z "/>
<path style=" fill:#ED7899;" d="M 9.828125 14.171875 L 4.171875 19.828125 C 3.421875 20.582031 3 21.597656 3 22.660156 L 3 29 C 3 30.105469 3.894531 31 5 31 L 59 31 C 60.105469 31 61 30.105469 61 29 L 61 22.660156 C 61 21.597656 60.578125 20.582031 59.828125 19.828125 L 54.171875 14.171875 C 53.417969 13.421875 52.402344 13 51.339844 13 L 12.660156 13 C 11.597656 13 10.582031 13.421875 9.828125 14.171875 Z "/>
<path style=" fill:#F283A5;" d="M 58 18 L 54.171875 14.171875 C 53.417969 13.421875 52.402344 13 51.339844 13 L 12.660156 13 C 11.597656 13 10.582031 13.421875 9.828125 14.171875 L 6 18 Z "/>
<path style=" fill:#C2CDE7;" d="M 43 29 L 51 29 L 51 35 L 43 35 Z "/>
<path style=" fill:#C2CDE7;" d="M 13 29 L 21 29 L 21 35 L 13 35 Z "/>
<path style=" fill:#8D6C9F;" d="M 60.539063 19.121094 L 57.710938 16.289063 L 54.878906 13.460938 C 53.941406 12.523438 52.667969 11.996094 51.339844 12 L 42 12 L 42 10.828125 C 42 10.035156 41.683594 9.273438 41.121094 8.710938 L 39.289063 6.878906 C 38.726563 6.316406 37.964844 6 37.171875 6 L 26.828125 6 C 26.035156 6 25.273438 6.316406 24.710938 6.878906 L 22.878906 8.710938 C 22.316406 9.273438 22 10.035156 22 10.828125 L 22 12 L 12.660156 12 C 11.332031 11.996094 10.058594 12.523438 9.121094 13.460938 L 6.289063 16.289063 L 3.460938 19.121094 C 2.523438 20.058594 1.996094 21.332031 2 22.660156 L 2 53 C 2 54.65625 3.34375 56 5 56 L 59 56 C 60.65625 56 62 54.65625 62 53 L 62 22.660156 C 62.003906 21.332031 61.476563 20.058594 60.539063 19.121094 Z M 24 10.828125 C 24 10.5625 24.101563 10.308594 24.289063 10.121094 L 26.121094 8.289063 C 26.308594 8.101563 26.5625 8 26.828125 8 L 37.171875 8 C 37.4375 8 37.691406 8.101563 37.878906 8.289063 L 39.710938 10.121094 C 39.898438 10.308594 40 10.5625 40 10.828125 L 40 12 L 24 12 Z M 4.878906 20.539063 L 6.070313 19.351563 C 6.246094 19.792969 6.710938 20.050781 7.179688 19.964844 C 7.648438 19.882813 7.992188 19.476563 8 19 L 8 17.410156 L 10.539063 14.871094 C 11.105469 14.3125 11.867188 13.996094 12.660156 14 L 51.339844 14 C 52.136719 14 52.898438 14.316406 53.460938 14.878906 L 56 17.410156 L 56 19 C 56.011719 19.476563 56.359375 19.875 56.824219 19.957031 C 57.292969 20.039063 57.753906 19.78125 57.929688 19.339844 L 59.121094 20.53125 C 59.683594 21.09375 60.003906 21.859375 60 22.660156 L 60 30 L 52 30 C 52 28.894531 51.105469 28 50 28 L 44 28 C 42.894531 28 42 28.894531 42 30 L 22 30 C 22 28.894531 21.105469 28 20 28 L 14 28 C 12.894531 28 12 28.894531 12 30 L 4 30 L 4 22.660156 C 4 21.863281 4.316406 21.101563 4.878906 20.539063 Z M 50 34 L 44 34 L 44 30 L 50 30 Z M 20 34 L 14 34 L 14 30 L 20 30 Z M 60 53 C 60 53.550781 59.550781 54 59 54 L 5 54 C 4.449219 54 4 53.550781 4 53 L 4 32 L 12 32 L 12 34 C 12 35.105469 12.894531 36 14 36 L 20 36 C 21.105469 36 22 35.105469 22 34 L 22 32 L 42 32 L 42 34 C 42 35.105469 42.894531 36 44 36 L 50 36 C 51.105469 36 52 35.105469 52 34 L 52 32 L 60 32 Z "/>
<path style=" fill:#8D6C9F;" d="M 17 20 C 17.550781 20 18 19.550781 18 19 L 18 17 C 18 16.449219 17.550781 16 17 16 C 16.449219 16 16 16.449219 16 17 L 16 19 C 16 19.550781 16.449219 20 17 20 Z "/>
<path style=" fill:#8D6C9F;" d="M 12 20 C 12.550781 20 13 19.550781 13 19 L 13 17 C 13 16.449219 12.550781 16 12 16 C 11.449219 16 11 16.449219 11 17 L 11 19 C 11 19.550781 11.449219 20 12 20 Z "/>
<path style=" fill:#8D6C9F;" d="M 32 20 C 32.550781 20 33 19.550781 33 19 L 33 17 C 33 16.449219 32.550781 16 32 16 C 31.449219 16 31 16.449219 31 17 L 31 19 C 31 19.550781 31.449219 20 32 20 Z "/>
<path style=" fill:#8D6C9F;" d="M 22 20 C 22.550781 20 23 19.550781 23 19 L 23 17 C 23 16.449219 22.550781 16 22 16 C 21.449219 16 21 16.449219 21 17 L 21 19 C 21 19.550781 21.449219 20 22 20 Z "/>
<path style=" fill:#8D6C9F;" d="M 27 20 C 27.550781 20 28 19.550781 28 19 L 28 17 C 28 16.449219 27.550781 16 27 16 C 26.449219 16 26 16.449219 26 17 L 26 19 C 26 19.550781 26.449219 20 27 20 Z "/>
<path style=" fill:#8D6C9F;" d="M 37 20 C 37.550781 20 38 19.550781 38 19 L 38 17 C 38 16.449219 37.550781 16 37 16 C 36.449219 16 36 16.449219 36 17 L 36 19 C 36 19.550781 36.449219 20 37 20 Z "/>
<path style=" fill:#8D6C9F;" d="M 52 20 C 52.550781 20 53 19.550781 53 19 L 53 17 C 53 16.449219 52.550781 16 52 16 C 51.449219 16 51 16.449219 51 17 L 51 19 C 51 19.550781 51.449219 20 52 20 Z "/>
<path style=" fill:#8D6C9F;" d="M 42 20 C 42.550781 20 43 19.550781 43 19 L 43 17 C 43 16.449219 42.550781 16 42 16 C 41.449219 16 41 16.449219 41 17 L 41 19 C 41 19.550781 41.449219 20 42 20 Z "/>
<path style=" fill:#8D6C9F;" d="M 47 20 C 47.550781 20 48 19.550781 48 19 L 48 17 C 48 16.449219 47.550781 16 47 16 C 46.449219 16 46 16.449219 46 17 L 46 19 C 46 19.550781 46.449219 20 47 20 Z "/>
<path style=" fill:#8D6C9F;" d="M 49 50 L 7 50 C 6.449219 50 6 50.449219 6 51 C 6 51.550781 6.449219 52 7 52 L 49 52 C 49.550781 52 50 51.550781 50 51 C 50 50.449219 49.550781 50 49 50 Z "/>
<path style=" fill:#8D6C9F;" d="M 52 51 C 52 51.550781 52.449219 52 53 52 L 57 52 C 57.550781 52 58 51.550781 58 51 C 58 50.449219 57.550781 50 57 50 L 53 50 C 52.449219 50 52 50.449219 52 51 Z "/>
</g>
</svg>
