<?xml version="1.0"?>
<svg xmlns="http://www.w3.org/2000/svg" xmlns:xlink="http://www.w3.org/1999/xlink" version="1.1" viewBox="0 0 192 192" width="512px" height="512px"><g transform=""><g fill="none" fill-rule="nonzero" stroke="none" stroke-width="1" stroke-linecap="butt" stroke-linejoin="miter" stroke-miterlimit="10" stroke-dasharray="" stroke-dashoffset="0" font-family="none" font-weight="none" font-size="none" text-anchor="none" style="mix-blend-mode: normal"><path d="M0,192v-192h192v192z" fill="none"/><g><g id="surface1"><path d="M15,21h162v150h-162z" fill="#85cbf8"/><path d="M24,21h144c4.96875,0 9,4.03125 9,9v15c0,4.96875 -4.03125,9 -9,9h-144c-4.96875,0 -9,-4.03125 -9,-9v-15c0,-4.96875 4.03125,-9 9,-9z" fill="#ace3ff"/><path d="M174,171h-156c-1.65234,0 -3,-1.34766 -3,-3c0,-6.63281 5.36719,-12 12,-12h138c6.63281,0 12,5.36719 12,12c0,1.65234 -1.34766,3 -3,3z" fill="#6fc6f0"/><path d="M132,87c0,23.19141 -18.80859,42 -42,42c-23.19141,0 -42,-18.80859 -42,-42c0,-23.19141 18.80859,-42 42,-42c23.19141,0 42,18.80859 42,42z" fill="#ffeb9b"/><path d="M114.23437,111.23438l-48.46875,-48.46875c-1.46484,-1.48828 -3.50391,-2.25 -5.57813,-2.07422c-2.07422,0.1875 -3.96094,1.27734 -5.13281,3c-11.14453,16.66406 -8.96485,38.87109 5.21484,53.03906c14.16797,14.17969 36.375,16.35938 53.03906,5.21485c1.72266,-1.17187 2.8125,-3.0586 3,-5.13281c0.17578,-2.07422 -0.58594,-4.11328 -2.07422,-5.57812z" fill="#f6d397"/><path d="M120,87c0,16.57031 -13.42969,30 -30,30c-16.57031,0 -30,-13.42969 -30,-30c0,-16.57031 13.42969,-30 30,-30c16.57031,0 30,13.42969 30,30z" fill="#bbdef9"/><path d="M108,87c0,9.9375 -8.0625,18 -18,18c-9.9375,0 -18,-8.0625 -18,-18c0,-9.9375 8.0625,-18 18,-18c9.9375,0 18,8.0625 18,18z" fill="#d2edff"/><path d="M87,77.34375c0,3.67969 -2.97656,6.65625 -6.65625,6.65625c-3.67969,0 -6.66797,-2.97656 -6.66797,-6.65625c0,-3.67969 2.98828,-6.66797 6.66797,-6.66797c3.67969,0 6.65625,2.98828 6.65625,6.66797z" fill="#f3f3f3"/><path d="M102.98437,100.5c0,1.37109 -1.11328,2.48438 -2.48437,2.48438c-1.37109,0 -2.48437,-1.11328 -2.48437,-2.48437c0,-1.37109 1.11328,-2.48437 2.48438,-2.48437c1.37109,0 2.48438,1.11328 2.48438,2.48438z" fill="#f3f3f3"/><path d="M112.47656,121.5l11.88281,-11.87109l21,21l-11.87109,11.87109z" fill="#cda1a7"/><path d="M171,18h-150c-4.96875,0 -9,4.03125 -9,9v138c0,4.96875 4.03125,9 9,9h150c4.96875,0 9,-4.03125 9,-9v-138c0,-4.96875 -4.03125,-9 -9,-9zM174,165c0,1.65234 -1.34766,3 -3,3h-150c-1.65234,0 -3,-1.34766 -3,-3v-138c0,-1.65234 1.34766,-3 3,-3h150c1.65234,0 3,1.34766 3,3z" fill="#8d6c9f"/><path d="M42,150c-1.65234,0 -3,1.34766 -3,3v6c0,1.65234 1.34766,3 3,3c1.65234,0 3,-1.34766 3,-3v-6c0,-1.65234 -1.34766,-3 -3,-3z" fill="#8d6c9f"/><path d="M27,150c-1.65234,0 -3,1.34766 -3,3v6c0,1.65234 1.34766,3 3,3c1.65234,0 3,-1.34766 3,-3v-6c0,-1.65234 -1.34766,-3 -3,-3z" fill="#8d6c9f"/><path d="M87,150c-1.65234,0 -3,1.34766 -3,3v6c0,1.65234 1.34766,3 3,3c1.65234,0 3,-1.34766 3,-3v-6c0,-1.65234 -1.34766,-3 -3,-3z" fill="#8d6c9f"/><path d="M102,150c-1.65234,0 -3,1.34766 -3,3v6c0,1.65234 1.34766,3 3,3c1.65234,0 3,-1.34766 3,-3v-6c0,-1.65234 -1.34766,-3 -3,-3z" fill="#8d6c9f"/><path d="M117,150c-1.65234,0 -3,1.34766 -3,3v6c0,1.65234 1.34766,3 3,3c1.65234,0 3,-1.34766 3,-3v-6c0,-1.65234 -1.34766,-3 -3,-3z" fill="#8d6c9f"/><path d="M132,150c-1.65234,0 -3,1.34766 -3,3v6c0,1.65234 1.34766,3 3,3c1.65234,0 3,-1.34766 3,-3v-6c0,-1.65234 -1.34766,-3 -3,-3z" fill="#8d6c9f"/><path d="M147,150c-1.65234,0 -3,1.34766 -3,3v6c0,1.65234 1.34766,3 3,3c1.65234,0 3,-1.34766 3,-3v-6c0,-1.65234 -1.34766,-3 -3,-3z" fill="#8d6c9f"/><path d="M162,150c-1.65234,0 -3,1.34766 -3,3v6c0,1.65234 1.34766,3 3,3c1.65234,0 3,-1.34766 3,-3v-6c0,-1.65234 -1.34766,-3 -3,-3z" fill="#8d6c9f"/><path d="M57,150c-1.65234,0 -3,1.34766 -3,3v6c0,1.65234 1.34766,3 3,3c1.65234,0 3,-1.34766 3,-3v-6c0,-1.65234 -1.34766,-3 -3,-3z" fill="#8d6c9f"/><path d="M72,150c-1.65234,0 -3,1.34766 -3,3v6c0,1.65234 1.34766,3 3,3c1.65234,0 3,-1.34766 3,-3v-6c0,-1.65234 -1.34766,-3 -3,-3z" fill="#8d6c9f"/><path d="M143.63672,123.86719l-13.76953,-13.76953c-0.26953,-0.26953 -0.77344,-0.92578 -0.75,-1.01953c11.20313,-19.73437 6.02344,-44.71875 -12.08203,-58.38281c-18.11719,-13.67578 -43.55859,-11.80078 -59.47266,4.37109c-15.91406,16.18359 -17.36719,41.64844 -3.39844,59.53125c13.95703,17.88281 39.02344,22.65234 58.57031,11.13281c-16.34766,16.5586 0.66797,0.36328 0.90234,0.59766l13.76953,13.76953c2.84766,3.14063 7.19531,4.46484 11.30859,3.43359c4.11328,-1.03125 7.32422,-4.24219 8.35547,-8.35547c1.03125,-4.11328 -0.29297,-8.46094 -3.4336,-11.30859zM51,87c0,-21.53906 17.46094,-39 39,-39c21.53906,0 39,17.46094 39,39c0,21.53906 -17.46094,39 -39,39c-21.53906,0 -39,-17.46094 -39,-39zM139.38281,135.86719c-1.03125,1.03125 -2.42578,1.61719 -3.89062,1.61719c-1.45312,0 -2.84766,-0.58594 -3.87891,-1.61719l-13.6875,-13.67578c2.87109,-2.28516 5.44922,-4.92187 7.6875,-7.82812l13.73437,13.76953c1.03125,1.03125 1.61719,2.42578 1.61719,3.8789c0,1.46485 -0.58594,2.85938 -1.61719,3.89063z" fill="#8d6c9f"/><path d="M57.51563,86.73047c0,18.07031 14.63672,32.71875 32.71875,32.73047c18.07031,0 32.71875,-14.63672 32.73047,-32.70703c0.01172,-18.08203 -14.625,-32.74219 -32.69531,-32.75391c-18.07031,0.01172 -32.73047,14.66016 -32.75391,32.73047zM63.51563,86.73047c0,-14.76562 11.96484,-26.73047 26.71875,-26.73047c14.76562,0 26.73047,11.96484 26.73047,26.73047c0,14.76562 -11.96484,26.73047 -26.73047,26.73047c-14.75391,-0.01172 -26.70703,-11.97656 -26.71875,-26.73047z" fill="#8d6c9f"/><path d="M90.26953,65.48438c8.51953,0 16.23047,5.08594 19.55859,12.9375c0.65625,1.52344 -0.04687,3.29297 -1.57031,3.9375c-1.52344,0.65625 -3.29297,-0.04687 -3.94922,-1.57031c-2.39062,-5.625 -7.92187,-9.28125 -14.03906,-9.26953c-1.65234,0 -3,-1.34766 -3,-3c0,-1.65234 1.34766,-3 3,-3z" fill="#8d6c9f"/></g></g><path d="M96,192c-53.01934,0 -96,-42.98066 -96,-96v0c0,-53.01934 42.98066,-96 96,-96v0c53.01934,0 96,42.98066 96,96v0c0,53.01934 -42.98066,96 -96,96z" fill="none"/><path d="M96,188.16c-50.89856,0 -92.16,-41.26144 -92.16,-92.16v0c0,-50.89856 41.26144,-92.16 92.16,-92.16v0c50.89856,0 92.16,41.26144 92.16,92.16v0c0,50.89856 -41.26144,92.16 -92.16,92.16z" fill="none"/><path d="M0,192v-192h192v192z" fill="none"/><path d="M3.84,188.16v-184.32h184.32v184.32z" fill="none"/><path d="" fill="none"/><path d="" fill="none"/></g></g></svg>
